<svg xmlns="http://www.w3.org/2000/svg" viewBox="0 0 885.89 709.61"><defs><style>.cls-1{fill:#41c0bf;}</style></defs><title>Asset 2</title><g id="Layer_2" data-name="Layer 2"><g id="Layer_1-2" data-name="Layer 1"><path class="cls-1" d="M853.56,131.63C785.92,20.42,668.83-11.24,552,3.82c-40.44,5.21-76.5,22-106.2,46.5C422.56,38,402.64,25.61,381.27,16.64,338.41-1.35,293.18-2.07,247.56,2.1,155.78,10.47,82.86,51,33.91,129.92c-52.73,85-42.74,214.32,21.42,299.14,10.59,14,21.53,27.73,32.34,41.56,17.59,22.49,27.83,48.25,22.36,76.28-8.84,45.24-20.39,90-31.87,134.65-5.56,21.64-4.08,25.73,17.89,26q134.6,1.38,269.2,2.07c19.63.11,23.26-5.47,17-24.44-9.13-27.83-12-56-6.91-85.06,2.4-13.58,9.21-24,22.92-24.62,29.11-1.35,58.35-1.38,87.48-.36,15.85.56,22.94,11.48,25.48,27.06,4.68,28.67,1.48,56.25-7.45,83.57-5.87,17.94-2.07,23.39,16.7,23.82,12.18.28,24.38-.43,36.57-.51,77-.53,154.1-.81,231.15-1.63,24.67-.26,26.39-3.59,19.44-26.68-8.13-27-15.64-54.25-23.54-81.34-16.41-56.27-11.68-108,32.16-151.49,3.43-3.4,6-7.71,9.07-11.46C855,400.69,873.07,359.76,880.55,314,891,250.33,888.18,188.55,853.56,131.63ZM369.44,693.74H89.7c4.42-14.75,8.54-27,11.76-39.57,6.8-26.36,13.4-52.78,19.58-79.3,11.67-50.09-1.78-93.09-36.38-130.65C55.45,412.52,35.47,375.4,24.2,333.7-17.64,179,71,43.09,229.49,18.41,291.8,8.7,351.93,12.08,407.84,44.6c8.27,4.81,15.81,10.87,21.62,14.91-17.12,27.22-34.88,52.26-49.26,79.11-20.31,37.92-24.87,78.23-12.65,120.39,2.39,8.22.57,19.83-3.69,27.41-13.59,24.18-29.27,47.19-44.1,70.69-15.3,24.23-12.31,34.21,13.78,46.36,6.13,2.86,12.22,5.79,19.9,9.44-2.57,6.8-4.67,13.08-7.31,19.13-3.84,8.81-.52,17.25-.32,25.66.39,16.76,11.65,27,15.53,40.65,2.92,10.25.62,22.16-.31,33.26-1.25,14.87.22,28.28,13.89,35.93C349.85,609.19,359.33,651.49,369.44,693.74ZM845.2,378.35c-8.35,18.94-18.95,38.53-33.44,52.82-54.11,53.32-59.5,115.19-38.21,183.53,7.92,25.43,14.84,51.16,23,79.5H517.06c9.24-42.19,20.1-84.56-5.62-126.37,13.28-7.74,15.59-20.94,13.84-35.83a183.6,183.6,0,0,1-1.36-20.42c0-5.77-1.32-14.58,1.74-16.79,15.21-11,10.84-29,16.94-43,2.12-4.88-.19-12.17-1.77-18-1.75-6.47-5-12.54-8.23-20.39,9.31-4.48,18-8.45,26.44-12.75,17.75-9,21.46-20.5,10.82-38.13q-20-33.18-41.86-65.24c-10.35-15.14-12.83-29.41-7.37-47.89,10-33.8,6.41-68.33-9.54-99.63-15.57-30.58-34.7-59.35-53.26-90.6,21.43-18.59,49.57-32.44,81-38.41,88.71-16.87,172.81-6,245,51.83C882.36,151.51,893.57,268.61,845.2,378.35Z"/></g></g></svg>